<?xml version="1.0" encoding="UTF-8" standalone="yes"?>
<svg xmlns="http://www.w3.org/2000/svg" xmlns:xlink="http://www.w3.org/1999/xlink" width="804.606pt" height="169.806pt" version="1.1" viewBox="-163.155 603.478 804.606 169.806">
  <!--
	Exported with Concepts: Smarter Sketching
	Version: 3224 on iOS 18.0
	https://concepts.app/
	-->
  <title>33D06BD1-BFBD-4D6B-B381-EBD0A50153D6</title>
  <desc>Drawing exported from Concepts: Smarter Sketching</desc>
  <defs></defs>
  <g id="Wire" opacity="1.000">
    <path id="STROKE_f863af56-393a-40dd-99d5-cabae286a092" opacity="1.000" fill="none" stroke="#171612" stroke-width="3.175" stroke-opacity="1.000" stroke-linecap="round" stroke-linejoin="round" d="M -31.353 642.391 Q -31.353 641.209 -31.353 641.258 Q -31.441 640.985 -31.228 639.531 Q -30.832 639.280 -33.768 646.274 Q -36.704 653.269 -40.940 660.072 Q -45.176 666.875 -47.654 670.643 Q -50.132 674.412 -53.548 681.186 Q -56.964 687.961 -60.392 693.697 Q -63.819 699.433 -69.038 705.547 "></path>
    <path id="STROKE_73af73fb-b840-4b94-832b-9ad7e90edc14" opacity="1.000" fill="none" stroke="#171612" stroke-width="3.175" stroke-opacity="1.000" stroke-linecap="round" stroke-linejoin="round" d="M -56.115 651.141 Q -55.961 650.788 -54.021 649.494 Q -52.082 648.201 -41.853 646.831 Q -31.625 645.461 -25.839 644.826 Q -20.053 644.191 -17.451 644.090 Q -14.848 643.989 -10.920 643.905 Q -6.992 643.821 -3.907 644.155 Q -0.822 644.489 0.962 645.186 Q 2.746 645.883 3.973 646.642 Q 5.200 647.401 5.267 649.320 Q 5.334 651.238 4.059 653.135 Q 2.784 655.032 -0.232 656.956 Q -3.249 658.880 -7.270 660.911 Q -11.292 662.943 -14.891 664.369 Q -18.490 665.795 -21.823 666.764 Q -25.156 667.734 -34.512 670.083 Q -43.869 672.433 -49.611 674.118 Q -55.353 675.804 -58.326 677.015 Q -61.300 678.226 -63.448 678.852 Q -65.596 679.478 -69.226 681.469 Q -68.086 682.225 -58.777 681.204 Q -49.468 680.182 -42.433 679.729 Q -35.398 679.276 -29.935 679.313 Q -24.473 679.349 -21.510 679.507 Q -18.547 679.664 -16.366 680.110 Q -14.186 680.555 -13.151 680.879 Q -12.116 681.202 -11.334 681.519 Q -10.551 681.835 -10.318 682.303 Q -10.086 682.770 -10.042 683.306 Q -9.999 683.842 -10.037 683.871 Q -10.075 683.900 -10.394 685.279 Q -10.714 686.657 -18.860 690.133 Q -27.006 693.609 -34.135 696.240 Q -41.263 698.870 -48.743 700.744 Q -56.223 702.617 -60.559 703.520 Q -64.896 704.424 -77.291 706.823 Q -89.686 709.222 -98.209 711.017 Q -106.731 712.812 -110.992 713.684 Q -115.253 714.557 -120.418 716.276 Q -125.582 717.995 -153.184 722.469 "></path>
    <path id="STROKE_166f4e25-3946-457f-aa2c-d5271e1a8275" opacity="1.000" fill="none" stroke="#171612" stroke-width="3.175" stroke-opacity="1.000" stroke-linecap="round" stroke-linejoin="round" d="M 4.935 686.641 Q 4.975 686.367 0.954 687.469 Q 0.954 687.539 0.954 687.641 Q 2.352 688.405 10.137 686.687 Q 17.923 684.969 23.174 683.033 Q 28.425 681.097 31.565 679.517 Q 34.706 677.936 36.640 676.210 Q 38.574 674.483 38.931 672.344 Q 39.336 672.413 37.044 671.791 Q 34.752 671.169 27.797 674.171 Q 20.842 677.173 16.707 679.054 Q 12.571 680.936 8.685 683.085 Q 4.799 685.233 0.849 687.715 Q -3.101 690.197 -5.000 691.614 Q -6.898 693.031 -8.221 694.626 Q -9.545 696.220 -9.996 697.139 Q -10.448 698.058 -10.471 700.001 Q -10.494 701.943 -5.712 702.452 Q -0.929 702.960 5.727 701.356 Q 12.383 699.751 17.673 697.624 Q 22.964 695.496 30.206 692.253 Q 37.449 689.011 42.630 686.956 Q 47.810 684.901 51.682 682.993 Q 55.554 681.086 60.033 678.657 Q 64.512 676.229 67.620 674.552 Q 70.727 672.874 73.135 669.195 Q 72.604 667.907 66.652 669.820 Q 60.700 671.734 57.286 673.421 Q 53.873 675.108 51.609 676.514 Q 49.345 677.919 48.153 678.736 Q 46.962 679.553 46.462 680.208 Q 45.962 680.864 45.997 681.481 Q 46.031 682.099 46.459 682.819 Q 46.887 683.539 49.775 684.281 Q 52.664 685.023 56.464 685.869 Q 60.265 686.714 62.459 687.458 Q 64.653 688.201 66.048 689.922 Q 65.489 691.608 57.615 694.526 Q 49.740 697.444 39.629 699.835 Q 29.517 702.226 18.838 705.484 "></path>
    <path id="STROKE_39614ac0-4839-42ec-b67f-5263d6ca116e" opacity="1.000" fill="none" stroke="#171612" stroke-width="3.175" stroke-opacity="1.000" stroke-linecap="round" stroke-linejoin="round" d="M 86.579 674.703 Q 86.309 675.467 88.070 670.656 L 88.101 670.656 Q 87.885 671.813 84.199 678.129 Q 80.514 684.445 78.598 688.112 Q 76.682 691.780 74.121 697.461 Q 71.561 703.142 69.679 707.372 Q 67.796 711.602 63.167 719.404 Q 58.537 727.206 55.615 731.857 Q 52.694 736.508 51.291 740.199 Q 49.888 743.889 46.706 746.891 "></path>
    <path id="STROKE_3951a638-44af-42dc-8b99-81d0c553546b" opacity="1.000" fill="none" stroke="#171612" stroke-width="3.175" stroke-opacity="1.000" stroke-linecap="round" stroke-linejoin="round" d="M 87.830 678.281 Q 87.818 677.302 87.799 677.617 Q 87.701 677.731 87.662 676.239 Q 87.623 674.747 90.788 672.321 Q 93.952 669.895 96.740 668.198 Q 99.528 666.502 105.768 663.968 Q 112.008 661.434 116.316 660.156 Q 120.624 658.877 122.894 658.718 Q 125.164 658.558 127.006 658.544 Q 128.847 658.529 129.826 659.524 Q 130.804 660.519 130.207 662.550 Q 129.610 664.582 124.710 669.070 Q 119.809 673.558 116.891 676.046 Q 113.973 678.533 112.166 680.138 Q 110.359 681.742 103.797 684.792 Q 97.236 687.843 93.512 689.376 Q 89.788 690.910 84.419 692.491 Q 79.050 694.072 72.927 697.328 "></path>
    <path id="STROKE_7eb1fa63-ba67-47ab-a2f1-ee6fb191d0fd" opacity="1.000" fill="none" stroke="#171612" stroke-width="3.175" stroke-opacity="1.000" stroke-linecap="round" stroke-linejoin="round" d="M 140.085 674.828 Q 140.299 674.750 146.838 667.102 Q 146.722 666.714 144.190 666.456 Q 141.659 666.198 136.188 670.266 Q 130.718 674.333 126.874 677.488 Q 123.030 680.644 120.397 683.685 Q 117.764 686.726 116.434 689.126 Q 115.103 691.527 114.801 693.518 Q 114.500 695.509 114.491 696.695 Q 114.482 697.881 115.036 699.096 Q 115.589 700.311 116.506 700.684 Q 117.423 701.056 120.071 700.883 Q 122.719 700.711 126.200 699.612 Q 129.681 698.513 134.501 695.151 Q 139.320 691.790 142.303 688.918 Q 145.285 686.046 147.460 683.700 Q 149.635 681.353 150.499 679.377 Q 151.363 677.401 151.392 675.491 Q 151.420 673.582 150.659 672.212 Q 149.899 670.842 147.847 670.063 Q 145.795 669.284 143.911 668.960 Q 142.027 668.636 140.298 669.401 Q 138.568 670.165 137.292 671.906 "></path>
    <path id="STROKE_8643df6f-20cf-4796-9414-07c22a3326e8" opacity="1.000" fill="none" stroke="#171612" stroke-width="3.175" stroke-opacity="1.000" stroke-linecap="round" stroke-linejoin="round" d="M 177.749 659.172 Q 178.311 658.233 181.584 653.266 Q 181.942 653.473 179.658 657.279 Q 177.373 661.086 172.336 668.220 Q 167.299 675.354 164.739 678.967 Q 162.179 682.581 159.308 687.405 Q 156.437 692.229 154.461 696.245 Q 152.485 700.260 149.610 702.703 Q 149.927 702.655 159.469 691.219 "></path>
    <path id="STROKE_75470c44-1fd2-49a7-be73-486ee6d07484" opacity="1.000" fill="none" stroke="#171612" stroke-width="3.175" stroke-opacity="1.000" stroke-linecap="round" stroke-linejoin="round" d="M 189.734 664.875 Q 190.781 664.133 199.280 659.234 Q 199.640 659.601 194.042 663.671 Q 188.444 667.741 183.411 672.755 Q 178.378 677.770 173.529 681.804 Q 168.679 685.838 165.773 687.778 Q 162.867 689.718 160.803 690.828 Q 160.969 690.447 164.045 688.810 Q 167.122 687.173 169.937 686.050 Q 172.753 684.926 174.837 684.586 Q 176.921 684.245 178.129 684.040 Q 179.337 683.835 180.044 685.081 Q 180.751 686.328 179.577 690.756 Q 178.404 695.185 177.916 700.742 Q 178.123 701.324 180.854 700.250 "></path>
    <path id="STROKE_73515c89-e426-4221-852b-5127cf0e03e8" opacity="1.000" fill="none" stroke="#171612" stroke-width="3.175" stroke-opacity="1.000" stroke-linecap="round" stroke-linejoin="round" d="M 192.527 689.625 Q 192.365 689.936 192.573 689.424 Q 192.782 688.912 193.955 687.648 Q 195.129 686.384 201.984 684.680 Q 208.839 682.976 212.431 682.058 Q 216.022 681.140 218.293 680.382 Q 220.563 679.624 222.656 678.483 Q 224.749 677.341 226.225 675.819 Q 227.701 674.296 228.231 672.987 Q 228.762 671.679 228.715 671.008 Q 228.669 670.338 228.595 669.943 Q 228.521 669.547 225.202 669.365 Q 221.883 669.183 217.523 670.478 Q 213.164 671.773 209.289 673.234 Q 205.414 674.695 201.032 677.257 Q 196.650 679.819 193.504 682.640 Q 190.358 685.462 188.459 687.543 Q 186.560 689.624 185.834 692.001 Q 185.108 694.378 185.128 696.342 Q 185.147 698.307 185.839 699.727 Q 186.530 701.148 188.393 702.610 Q 190.257 704.073 196.628 704.626 Q 202.999 705.180 208.438 704.628 Q 213.877 704.077 218.131 703.202 Q 222.385 702.327 232.665 698.415 Q 242.945 694.504 261.248 685.250 "></path>
    <path id="STROKE_d215cfd3-1902-47b4-80f0-49c52a15ff51" opacity="1.000" fill="none" stroke="#171612" stroke-width="3.175" stroke-opacity="1.000" stroke-linecap="round" stroke-linejoin="round" d="M 356.732 649.547 Q 356.678 649.200 359.285 646.031 Q 359.554 646.428 354.262 657.185 Q 348.970 667.943 343.839 676.324 Q 338.707 684.705 336.198 688.656 Q 333.689 692.606 332.453 695.058 Q 331.217 697.509 329.844 701.844 "></path>
    <path id="STROKE_446d5af3-089e-48f2-ab61-75d5e109382d" opacity="1.000" fill="none" stroke="#171612" stroke-width="3.175" stroke-opacity="1.000" stroke-linecap="round" stroke-linejoin="round" d="M 335.284 653.797 Q 334.341 653.797 334.356 653.797 Q 333.390 653.693 333.369 653.678 Q 333.348 653.664 333.308 653.616 Q 333.268 653.568 332.984 653.637 Q 332.700 653.706 331.870 653.440 Q 331.040 653.175 330.723 652.998 Q 330.406 652.822 330.388 652.771 Q 330.370 652.721 330.259 652.276 Q 330.147 651.832 330.065 651.650 Q 329.984 651.467 330.018 651.413 Q 330.053 651.358 330.100 651.311 Q 330.147 651.264 330.713 650.846 Q 331.279 650.428 331.811 650.312 Q 332.342 650.197 333.541 649.581 Q 334.739 648.965 343.763 647.518 Q 352.786 646.071 358.477 645.446 Q 364.168 644.820 372.922 644.363 Q 381.677 643.906 386.256 643.873 Q 390.835 643.839 392.796 643.914 Q 394.757 643.989 395.772 644.256 Q 396.787 644.524 397.262 645.401 Q 397.738 646.277 395.393 647.983 Q 393.047 649.690 388.664 651.964 Q 384.282 654.237 377.643 657.156 Q 371.005 660.075 363.936 662.898 Q 356.867 665.721 353.159 667.096 Q 349.451 668.472 347.205 669.756 Q 344.959 671.040 344.049 673.734 Q 344.220 674.814 351.570 675.167 Q 358.921 675.520 364.076 675.800 Q 369.230 676.079 372.250 676.540 Q 375.270 677.001 376.756 677.699 Q 378.242 678.398 379.228 679.165 Q 380.215 679.932 380.108 681.484 Q 380.002 683.037 379.119 684.183 Q 378.236 685.328 373.569 688.458 Q 368.903 691.587 363.345 693.870 Q 357.788 696.152 352.679 698.280 Q 347.570 700.407 341.599 702.206 Q 335.628 704.004 322.503 707.667 Q 309.378 711.331 300.398 714.407 Q 291.419 717.483 287.519 719.169 Q 283.619 720.855 278.394 722.756 Q 273.170 724.656 269.925 725.520 Q 266.680 726.384 264.416 728.969 "></path>
    <path id="STROKE_c0851a5d-fbda-4661-a5f3-9fc1de5d0891" opacity="1.000" fill="none" stroke="#171612" stroke-width="3.175" stroke-opacity="1.000" stroke-linecap="round" stroke-linejoin="round" d="M 408.778 665.875 Q 408.921 665.480 409.695 662.258 Q 409.268 661.603 405.062 662.775 Q 400.856 663.948 395.920 669.279 Q 390.983 674.610 387.620 679.275 Q 384.256 683.939 382.466 687.328 Q 380.676 690.717 379.962 693.040 Q 379.249 695.363 379.314 696.798 Q 379.380 698.234 379.730 699.120 Q 380.080 700.006 381.893 700.383 Q 383.706 700.760 386.424 700.482 Q 389.142 700.203 393.063 697.467 Q 396.984 694.731 401.524 690.458 Q 406.064 686.186 408.865 683.776 Q 411.667 681.366 413.323 678.635 Q 414.979 675.904 415.640 673.381 Q 416.300 670.858 416.329 669.123 Q 416.358 667.389 416.053 666.689 Q 415.748 665.990 415.215 665.207 Q 414.683 664.425 411.588 663.559 Q 408.493 662.692 398.836 667.328 "></path>
    <path id="STROKE_a9d517df-d57d-4913-9348-cbccdf87a416" opacity="1.000" fill="none" stroke="#171612" stroke-width="3.175" stroke-opacity="1.000" stroke-linecap="round" stroke-linejoin="round" d="M 439.356 664.422 Q 439.707 662.951 439.731 663.016 Q 439.683 663.644 440.356 660.203 Q 439.425 659.348 433.597 664.861 Q 427.769 670.374 423.989 674.708 Q 420.208 679.042 417.856 682.893 Q 415.503 686.743 414.529 689.134 Q 413.555 691.524 412.968 694.466 Q 412.381 697.408 412.340 698.741 Q 412.300 700.075 412.643 700.887 Q 412.985 701.699 414.426 702.043 Q 415.868 702.387 419.255 700.848 Q 422.641 699.310 427.206 696.154 Q 431.771 692.998 434.408 691.163 Q 437.045 689.328 440.731 685.222 Q 444.418 681.115 446.183 678.735 Q 447.947 676.355 449.167 674.653 Q 450.386 672.952 457.052 659.766 "></path>
    <path id="STROKE_476e8525-19a1-4757-a3d1-5c56448f0d9e" opacity="1.000" fill="none" stroke="#171612" stroke-width="3.175" stroke-opacity="1.000" stroke-linecap="round" stroke-linejoin="round" d="M 481.480 648.156 Q 481.124 648.390 482.024 646.846 Q 482.925 645.303 484.057 643.645 Q 485.190 641.988 486.900 640.469 Q 486.517 640.404 482.200 647.459 Q 477.883 654.513 472.390 662.416 Q 466.896 670.318 464.149 674.239 Q 461.401 678.160 459.114 682.160 Q 456.827 686.160 452.632 692.984 Q 448.437 699.808 441.940 706.953 "></path>
    <path id="STROKE_2ed524a4-3608-41c1-8ff6-cdf714a6b486" opacity="1.000" fill="none" stroke="#171612" stroke-width="3.175" stroke-opacity="1.000" stroke-linecap="round" stroke-linejoin="round" d="M 479.896 676.750 Q 479.811 676.553 481.209 673.375 Q 482.754 674.262 461.950 704.422 "></path>
    <path id="STROKE_cd346f30-b95a-4ac7-a76f-d46ac6e7301a" opacity="1.000" fill="none" stroke="#171612" stroke-width="3.175" stroke-opacity="1.000" stroke-linecap="round" stroke-linejoin="round" d="M 514.246 677.625 Q 513.917 677.876 515.360 676.807 Q 516.802 675.738 517.520 675.009 Q 518.237 674.280 518.603 673.625 Q 518.969 672.970 518.895 672.662 Q 518.822 672.353 518.879 672.453 Q 518.937 672.552 518.478 672.156 Q 518.019 671.759 515.530 671.541 Q 513.041 671.322 509.043 672.652 Q 505.045 673.983 500.556 677.057 Q 496.066 680.131 493.492 682.618 Q 490.917 685.105 489.854 686.321 Q 488.792 687.537 488.467 688.349 Q 488.143 689.160 488.081 689.591 Q 488.019 690.021 488.018 690.433 Q 488.017 690.845 488.718 691.412 Q 489.418 691.979 491.903 691.868 Q 494.388 691.757 495.702 691.786 Q 497.016 691.816 504.112 688.413 Q 511.207 685.011 515.803 682.460 Q 520.399 679.910 523.069 677.793 Q 525.738 675.677 527.419 673.703 Q 527.445 673.842 521.170 680.491 Q 514.896 687.141 511.229 690.704 Q 507.563 694.267 499.241 705.156 Q 490.919 716.044 485.682 723.387 Q 480.446 730.729 477.415 736.370 Q 474.385 742.010 470.124 748.098 Q 465.863 754.186 461.158 763.344 "></path>
    <path id="STROKE_fda4c789-d8d7-4110-aee7-0ea6eda5b1f9" opacity="1.000" fill="none" stroke="#171612" stroke-width="3.175" stroke-opacity="1.000" stroke-linecap="round" stroke-linejoin="round" d="M 544.449 672.703 Q 544.512 672.386 546.337 670.149 Q 548.161 667.911 550.014 665.547 Q 550.077 665.048 548.502 666.292 Q 546.927 667.536 542.071 673.376 Q 537.215 679.216 534.238 682.176 Q 531.261 685.135 528.490 689.271 Q 525.720 693.407 524.593 695.908 Q 523.465 698.409 522.720 699.865 Q 521.974 701.321 522.532 704.586 Q 524.337 705.543 529.457 703.135 Q 534.577 700.727 538.516 697.874 Q 542.455 695.020 546.516 690.580 Q 550.576 686.139 552.858 683.711 Q 555.140 681.282 557.478 678.720 Q 559.817 676.158 562.061 672.742 Q 561.820 672.635 560.394 673.906 "></path>
    <path id="STROKE_83f353ab-1175-4dbd-8cd4-57f747a1e8ca" opacity="1.000" fill="none" stroke="#171612" stroke-width="3.175" stroke-opacity="1.000" stroke-linecap="round" stroke-linejoin="round" d="M 567.168 684.578 Q 566.829 684.379 565.884 685.048 Q 564.939 685.717 564.708 687.109 Q 565.231 687.740 571.114 686.413 Q 576.997 685.085 582.028 682.786 Q 587.059 680.487 589.658 678.848 Q 592.258 677.210 595.239 674.755 Q 598.220 672.301 600.021 670.664 Q 601.821 669.026 602.248 666.969 Q 600.682 666.436 596.555 666.859 Q 592.428 667.281 587.619 669.366 Q 582.809 671.450 578.815 674.394 Q 574.820 677.338 572.797 679.001 Q 570.774 680.663 568.838 683.147 Q 566.902 685.630 566.186 687.454 Q 565.470 689.279 565.427 690.576 Q 565.384 691.873 565.329 692.885 Q 565.274 693.897 566.562 695.288 Q 567.851 696.679 570.227 697.496 Q 572.603 698.313 576.819 698.239 Q 581.035 698.164 584.543 698.141 Q 588.051 698.118 595.395 696.204 Q 602.738 694.289 608.701 692.135 Q 614.663 689.980 620.510 687.849 Q 626.357 685.717 631.512 683.328 "></path>
    <path id="STROKE_9b7cb2df-059a-4a13-9806-c9e9a38defa6" opacity="1.000" fill="none" stroke="#171612" stroke-width="3.175" stroke-opacity="1.000" stroke-linecap="round" stroke-linejoin="round" d="M 497.968 657.844 Q 498.009 657.612 498.010 657.705 Q 498.010 657.799 497.903 657.096 Q 497.795 656.393 497.091 656.436 Q 496.387 656.480 494.346 658.147 Q 492.305 659.813 490.353 662.083 Q 488.401 664.352 488.525 668.961 Q 489.379 669.760 491.691 669.665 Q 494.003 669.569 495.955 668.805 Q 497.907 668.042 499.590 666.874 Q 501.273 665.707 502.029 664.467 Q 502.786 663.228 503.000 661.758 Q 503.215 660.288 501.876 659.513 Q 500.537 658.738 495.842 658.969 "></path>
    <path id="STROKE_64abd5f7-ec33-4f1b-a17d-682eec0ed880" opacity="1.000" fill="none" stroke="#171612" stroke-width="3.175" stroke-opacity="1.000" stroke-linecap="round" stroke-linejoin="round" d="M 462.742 655.859 Q 463.495 655.745 457.448 656.188 Q 457.448 656.219 457.448 656.250 Q 457.024 656.320 464.430 656.262 Q 471.837 656.204 487.046 654.469 "></path>
    <path id="STROKE_87e343d6-dc25-4d69-b918-539f234f38c8" opacity="1.000" fill="none" stroke="#171612" stroke-width="3.175" stroke-opacity="1.000" stroke-linecap="round" stroke-linejoin="round" d="M 54.585 657.906 Q 54.585 657.945 54.522 658.250 Q 54.491 658.250 54.459 658.312 Q 53.974 658.965 62.130 654.450 Q 70.287 649.936 75.165 647.086 Q 80.043 644.237 82.896 642.919 Q 85.749 641.601 88.523 640.232 Q 91.298 638.863 97.501 634.953 "></path>
    <path id="STROKE_ea362570-0b42-4e2b-a18c-e277299f234b" opacity="1.000" fill="none" stroke="#171612" stroke-width="3.175" stroke-opacity="1.000" stroke-linecap="round" stroke-linejoin="round" d="M 502.803 636.219 Q 502.623 636.219 502.199 636.219 Q 501.730 636.363 508.879 632.971 Q 516.027 629.580 521.678 626.933 Q 527.329 624.286 532.983 622.346 Q 538.637 620.407 543.067 618.633 Q 547.496 616.858 554.308 613.453 "></path>
  </g>
</svg>