<svg width="0" height="0" class="hidden">
  <symbol xmlns="http://www.w3.org/2000/svg" viewBox="0 0 512 512" id="pen-nib-solid">
    <path d="M368.4 18.3L312.7 74.1 437.9 199.3l55.7-55.7c21.9-21.9 21.9-57.3 0-79.2L447.6 18.3c-21.9-21.9-57.3-21.9-79.2 0zM288 94.6l-9.2 2.8L134.7 140.6c-19.9 6-35.7 21.2-42.3 41L3.8 445.8c-3.8 11.3-1 23.9 7.3 32.4L164.7 324.7c-3-6.3-4.7-13.3-4.7-20.7c0-26.5 21.5-48 48-48s48 21.5 48 48s-21.5 48-48 48c-7.4 0-14.4-1.7-20.7-4.7L33.7 500.9c8.6 8.3 21.1 11.2 32.4 7.3l264.3-88.6c19.7-6.6 35-22.4 41-42.3l43.2-144.1 2.7-9.2L288 94.6z"></path>
  </symbol>
  <symbol xmlns="http://www.w3.org/2000/svg" viewBox="0 0 512 512" id="inbox-solid">
    <path d="M121 32C91.6 32 66 52 58.9 80.5L1.9 308.4C.6 313.5 0 318.7 0 323.9L0 416c0 35.3 28.7 64 64 64l384 0c35.3 0 64-28.7 64-64l0-92.1c0-5.2-.6-10.4-1.9-15.5l-57-227.9C446 52 420.4 32 391 32L121 32zm0 64l270 0 48 192-51.2 0c-12.1 0-23.2 6.8-28.6 17.7l-14.3 28.6c-5.4 10.8-16.5 17.7-28.6 17.7l-120.4 0c-12.1 0-23.2-6.8-28.6-17.7l-14.3-28.6c-5.4-10.8-16.5-17.7-28.6-17.7L73 288 121 96z"></path>
  </symbol>
  <symbol xmlns="http://www.w3.org/2000/svg" viewBox="0 0 512 512" id="envelope-solid">
    <path d="M48 64C21.5 64 0 85.5 0 112c0 15.1 7.1 29.3 19.2 38.4L236.8 313.6c11.4 8.5 27 8.5 38.4 0L492.8 150.4c12.1-9.1 19.2-23.3 19.2-38.4c0-26.5-21.5-48-48-48L48 64zM0 176L0 384c0 35.3 28.7 64 64 64l384 0c35.3 0 64-28.7 64-64l0-208L294.4 339.2c-22.8 17.1-54 17.1-76.8 0L0 176z"></path>
  </symbol>
</svg>